<svg xmlns="http://www.w3.org/2000/svg" width="24" height="24" viewBox="0 0 24 24" fill="none">
  <path fill-rule="evenodd" clip-rule="evenodd" d="M11 2C15.4183 2 19 5.58172 19 10C19 11.8487 18.3729 13.551 17.3199 14.9056L21.7071 19.2929C22.0976 19.6834 22.0976 20.3166 21.7071 20.7071C21.3166 21.0976 20.6834 21.0976 20.2929 20.7071L15.9056 16.3199C14.551 17.3729 12.8487 18 11 18C6.58172 18 3 14.4183 3 10C3 5.58172 6.58172 2 11 2ZM11 4C7.68629 4 5 6.68629 5 10C5 13.3137 7.68629 16 11 16C14.3137 16 17 13.3137 17 10C17 6.68629 14.3137 4 11 4Z" fill="currentColor"/>
</svg>